<svg width="75" height="75" viewBox="0 0 40 16" fill="none" xmlns="http://www.w3.org/2000/svg">
<path d="M1.41584 13C1.25584 13 1.11984 12.948 1.00784 12.844C0.895844 12.74 0.839844 12.616 0.839844 12.472V5.12798C0.839844 4.97598 0.895844 4.85198 1.00784 4.75598C1.11984 4.65198 1.25584 4.59998 1.41584 4.59998H4.75184C5.44784 4.59998 5.99984 4.80798 6.40784 5.22398C6.82384 5.63998 7.03184 6.19998 7.03184 6.90398C7.03184 7.27998 6.93184 7.63198 6.73184 7.95998C6.53184 8.28798 6.27184 8.53198 5.95184 8.69198V8.71598C6.40784 8.85198 6.75984 9.08798 7.00784 9.42398C7.25584 9.75198 7.37984 10.152 7.37984 10.624C7.37984 11.088 7.27984 11.5 7.07984 11.86C6.88784 12.22 6.61584 12.5 6.26384 12.7C5.91184 12.9 5.50784 13 5.05184 13H1.41584ZM4.72784 8.30798C5.05584 8.30798 5.33584 8.17598 5.56784 7.91198C5.80784 7.63998 5.92784 7.31198 5.92784 6.92798C5.92784 6.50398 5.81984 6.17198 5.60384 5.93198C5.39584 5.69198 5.10384 5.57198 4.72784 5.57198H1.95584V8.30798H4.72784ZM4.96784 12.028C5.37584 12.028 5.69584 11.908 5.92784 11.668C6.15984 11.42 6.27584 11.076 6.27584 10.636C6.27584 10.212 6.15984 9.87998 5.92784 9.63998C5.70384 9.39998 5.38384 9.27998 4.96784 9.27998H1.95584V12.028H4.96784Z" fill="#20201E"/>
<path d="M10.449 13.108C9.76103 13.108 9.20503 12.924 8.78103 12.556C8.36503 12.188 8.15703 11.704 8.15703 11.104C8.15703 10.496 8.37703 10.008 8.81703 9.63998C9.25703 9.26398 9.83703 9.07598 10.557 9.07598C11.325 9.07598 11.957 9.34798 12.453 9.89198L12.501 9.84398C12.413 9.74798 12.313 9.64798 12.201 9.54398V9.03998C12.201 8.63198 12.073 8.31598 11.817 8.09198C11.561 7.86798 11.197 7.75598 10.725 7.75598C9.88503 7.75598 9.28503 8.08798 8.92503 8.75198C8.79703 8.68798 8.68903 8.60398 8.60103 8.49998C8.52103 8.38798 8.48103 8.27598 8.48103 8.16398C8.48103 7.94798 8.58903 7.74398 8.80503 7.55198C9.02103 7.35198 9.30503 7.19198 9.65703 7.07198C10.017 6.95198 10.393 6.89198 10.785 6.89198C11.545 6.89198 12.141 7.07998 12.573 7.45598C13.013 7.83198 13.233 8.35198 13.233 9.01598V12.304C13.233 12.584 13.153 12.788 12.993 12.916C12.833 13.044 12.581 13.108 12.237 13.108V12.544C12.405 12.368 12.497 12.264 12.513 12.232L12.465 12.184C11.945 12.8 11.273 13.108 10.449 13.108ZM10.629 12.28C11.125 12.28 11.513 12.176 11.793 11.968C12.081 11.76 12.225 11.472 12.225 11.104C12.225 10.736 12.085 10.444 11.805 10.228C11.525 10.012 11.141 9.90398 10.653 9.90398C10.197 9.90398 9.83703 10.012 9.57303 10.228C9.31703 10.436 9.18903 10.728 9.18903 11.104C9.18903 11.48 9.31303 11.772 9.56103 11.98C9.81703 12.18 10.173 12.28 10.629 12.28Z" fill="#20201E"/>
<path d="M16.8517 13.108C16.4437 13.108 16.0597 13.048 15.6997 12.928C15.3397 12.8 15.0477 12.62 14.8237 12.388C14.6077 12.156 14.4997 11.884 14.4997 11.572C14.4997 11.188 14.7317 10.98 15.1957 10.948C15.2757 11.396 15.4637 11.728 15.7597 11.944C16.0637 12.152 16.4477 12.256 16.9117 12.256C17.3757 12.256 17.7357 12.188 17.9917 12.052C18.2477 11.916 18.3757 11.708 18.3757 11.428C18.3757 11.228 18.3237 11.068 18.2197 10.948C18.1157 10.82 17.9477 10.712 17.7157 10.624C17.4917 10.528 17.1677 10.436 16.7437 10.348C16.2157 10.228 15.7957 10.1 15.4837 9.96398C15.1717 9.82798 14.9317 9.64798 14.7637 9.42398C14.6037 9.19998 14.5237 8.90398 14.5237 8.53598C14.5237 8.22398 14.6197 7.94398 14.8117 7.69598C15.0037 7.43998 15.2677 7.24398 15.6037 7.10798C15.9477 6.96398 16.3357 6.89198 16.7677 6.89198C17.1677 6.89198 17.5437 6.94798 17.8957 7.05998C18.2557 7.17198 18.5437 7.33198 18.7597 7.53998C18.9837 7.74798 19.0957 7.98798 19.0957 8.25998C19.0957 8.44398 19.0237 8.59198 18.8797 8.70398C18.7357 8.80798 18.5357 8.86798 18.2797 8.88398C18.2557 8.53198 18.1117 8.25598 17.8477 8.05598C17.5917 7.84798 17.2317 7.74398 16.7677 7.74398C16.3837 7.74398 16.0797 7.81598 15.8557 7.95998C15.6317 8.10398 15.5197 8.29598 15.5197 8.53598C15.5197 8.79198 15.6237 8.98398 15.8317 9.11198C16.0477 9.23198 16.4117 9.34798 16.9237 9.45998C17.7637 9.62798 18.3797 9.85998 18.7717 10.156C19.1717 10.444 19.3717 10.856 19.3717 11.392C19.3717 11.936 19.1517 12.36 18.7117 12.664C18.2717 12.96 17.6517 13.108 16.8517 13.108Z" fill="#20201E"/>
<path d="M22.5989 13.108C22.0309 13.108 21.6069 12.948 21.3269 12.628C21.0469 12.3 20.9069 11.872 20.9069 11.344V7.83998H19.7909C19.7909 7.56798 19.8509 7.35998 19.9709 7.21598C20.0909 7.07198 20.2549 6.99998 20.4629 6.99998H20.9189V5.85998C20.9189 5.59598 21.0029 5.40398 21.1709 5.28398C21.3469 5.15598 21.6069 5.09198 21.9509 5.09198V6.99998H23.5469C23.5469 7.55998 23.2949 7.83998 22.7909 7.83998H21.9629V11.308C21.9629 11.628 22.0189 11.856 22.1309 11.992C22.2509 12.12 22.4629 12.184 22.7669 12.184C23.0469 12.184 23.3109 12.112 23.5589 11.968C23.6629 12.072 23.7149 12.212 23.7149 12.388C23.7149 12.58 23.6149 12.748 23.4149 12.892C23.2149 13.036 22.9429 13.108 22.5989 13.108Z" fill="#20201E"/>
<path d="M25.72 5.99194C25.496 5.99194 25.308 5.91994 25.156 5.77594C25.004 5.63194 24.928 5.45194 24.928 5.23594C24.928 5.01994 25.004 4.84394 25.156 4.70794C25.308 4.56394 25.496 4.49194 25.72 4.49194C25.936 4.49194 26.12 4.56394 26.272 4.70794C26.424 4.84394 26.5 5.01994 26.5 5.23594C26.5 5.45194 26.424 5.63194 26.272 5.77594C26.12 5.91994 25.936 5.99194 25.72 5.99194ZM25.192 7.65994C25.192 7.39594 25.276 7.20394 25.444 7.08394C25.62 6.95594 25.884 6.89194 26.236 6.89194V14.8746C26.236 15.1386 26.1847 14.6951 26 14.6951C25.9443 14.6951 25.544 14.6951 25.192 14.6951V7.65994Z" fill="#1B1B1A"/>
<path d="M30.2136 13.108C29.7256 13.108 29.2816 13.016 28.8816 12.832C28.4896 12.648 28.1816 12.4 27.9576 12.088C27.7416 11.768 27.6336 11.412 27.6336 11.02V9.05198C27.6336 8.65198 27.7416 8.28798 27.9576 7.95998C28.1816 7.63198 28.4896 7.37198 28.8816 7.17998C29.2736 6.98798 29.7176 6.89198 30.2136 6.89198C30.7096 6.89198 31.1536 6.98798 31.5456 7.17998C31.9456 7.37198 32.2536 7.63198 32.4696 7.95998C32.6936 8.28798 32.8056 8.65198 32.8056 9.05198V11.02C32.8056 11.412 32.6936 11.768 32.4696 12.088C32.2456 12.4 31.9376 12.648 31.5456 12.832C31.1536 13.016 30.7096 13.108 30.2136 13.108ZM30.2136 12.208C30.6936 12.208 31.0736 12.096 31.3536 11.872C31.6416 11.64 31.7856 11.34 31.7856 10.972V9.08798C31.7856 8.70398 31.6416 8.39198 31.3536 8.15198C31.0736 7.91198 30.6936 7.79198 30.2136 7.79198C29.7416 7.79198 29.3616 7.91198 29.0736 8.15198C28.7856 8.39198 28.6416 8.70398 28.6416 9.08798V10.972C28.6416 11.34 28.7816 11.64 29.0616 11.872C29.3496 12.096 29.7336 12.208 30.2136 12.208Z" fill="#20201E"/>
<path d="M34.1914 7.77998C34.1914 7.18798 34.5274 6.89198 35.1994 6.89198V7.65998C35.1274 7.73198 35.0434 7.83998 34.9474 7.98398L34.9954 8.03198C35.2354 7.69598 35.5474 7.42398 35.9314 7.21598C36.3154 6.99998 36.7314 6.89198 37.1794 6.89198C37.8274 6.89198 38.3394 7.08398 38.7154 7.46798C39.0914 7.85198 39.2794 8.34798 39.2794 8.95598V12.34C39.2794 12.604 39.1914 12.8 39.0154 12.928C38.8474 13.048 38.5874 13.108 38.2354 13.108V9.06398C38.2354 8.67998 38.1274 8.37598 37.9114 8.15198C37.6954 7.92798 37.3674 7.81598 36.9274 7.81598C36.6314 7.81598 36.3514 7.87998 36.0874 8.00798C35.8314 8.12798 35.6234 8.29598 35.4634 8.51198C35.3114 8.71998 35.2354 8.94798 35.2354 9.19598V12.34C35.2354 12.604 35.1474 12.8 34.9714 12.928C34.8034 13.048 34.5434 13.108 34.1914 13.108V7.77998Z" fill="#20201E"/>
<path d="M1 15H13.37H25.74" stroke="black" stroke-linecap="square" stroke-linejoin="round"/>
</svg>
