<svg width="30" height="30" viewBox="0 0 27 27" fill="none" xmlns="http://www.w3.org/2000/svg" stroke-width="0.9">
<path stroke-width="1.1"  d="M20.4638 19.9688H8.4825C7.36875 19.9688 6.3 19.4963 5.54625 18.675C5.17237 18.2678 4.88649 17.788 4.70647 17.2653C4.52645 16.7427 4.45616 16.1885 4.5 15.6375L5.43375 4.4325C5.4675 4.08375 5.34375 3.74625 5.1075 3.4875C4.87125 3.22875 4.545 3.09375 4.19625 3.09375H2.25C1.78875 3.09375 1.40625 2.71125 1.40625 2.25C1.40625 1.78875 1.78875 1.40625 2.25 1.40625H4.2075C5.02875 1.40625 5.805 1.755 6.35625 2.35125C6.66 2.68875 6.885 3.0825 7.00875 3.52125H21.06C22.1962 3.52125 23.2425 3.97125 24.0075 4.78125C24.7612 5.6025 25.1438 6.67125 25.0538 7.8075L24.4462 16.245C24.3225 18.3038 22.5225 19.9688 20.4638 19.9688ZM7.065 5.1975L6.1875 15.7725C6.13125 16.425 6.345 17.0438 6.78375 17.5275C7.2225 18.0113 7.83 18.27 8.4825 18.27H20.4638C21.6338 18.27 22.6913 17.28 22.7812 16.11L23.3888 7.6725C23.4155 7.35353 23.3751 7.03249 23.2704 6.73003C23.1656 6.42756 22.9988 6.15035 22.7805 5.91621C22.5623 5.68207 22.2975 5.49617 22.0031 5.37045C21.7087 5.24474 21.3913 5.182 21.0712 5.18625H7.065V5.1975ZM18.2812 25.5938C17.0437 25.5938 16.0312 24.5813 16.0312 23.3438C16.0312 22.1062 17.0437 21.0938 18.2812 21.0938C19.5188 21.0938 20.5312 22.1062 20.5312 23.3438C20.5312 24.5813 19.5188 25.5938 18.2812 25.5938ZM18.2812 22.7812C17.9663 22.7812 17.7188 23.0288 17.7188 23.3438C17.7188 23.6587 17.9663 23.9062 18.2812 23.9062C18.5962 23.9062 18.8438 23.6587 18.8438 23.3438C18.8438 23.0288 18.5962 22.7812 18.2812 22.7812ZM9.28125 25.5938C8.04375 25.5938 7.03125 24.5813 7.03125 23.3438C7.03125 22.1062 8.04375 21.0938 9.28125 21.0938C10.5188 21.0938 11.5312 22.1062 11.5312 23.3438C11.5312 24.5813 10.5188 25.5938 9.28125 25.5938ZM9.28125 22.7812C8.96625 22.7812 8.71875 23.0288 8.71875 23.3438C8.71875 23.6587 8.96625 23.9062 9.28125 23.9062C9.59625 23.9062 9.84375 23.6587 9.84375 23.3438C9.84375 23.0288 9.59625 22.7812 9.28125 22.7812Z" fill="#000"/>
<path  d="M23.625 9.84375H10.125C9.66375 9.84375 9.28125 9.46125 9.28125 9C9.28125 8.53875 9.66375 8.15625 10.125 8.15625H23.625C24.0863 8.15625 24.4688 8.53875 24.4688 9C24.4688 9.46125 24.0863 9.84375 23.625 9.84375Z" fill="#000" stroke-width="1" />
</svg>
