<svg width="8" height="8" viewBox="0 0 18 18" fill="none" xmlns="http://www.w3.org/2000/svg">
<path d="M1.89438 0.766968C1.62289 0.766968 1.33898 0.858283 1.13177 1.06532C0.717469 1.48046 0.717469 2.17695 1.13177 2.59209L7.79593 9.26087L1.13177 15.9296C0.717469 16.3448 0.717469 17.0413 1.13177 17.4564C1.54618 17.8705 2.24259 17.8705 2.65699 17.4564L9.32105 10.7876L15.9851 17.4564C16.3995 17.8705 17.0959 17.8705 17.5103 17.4564C17.9246 17.0413 17.9246 16.3448 17.5103 15.9296L10.8462 9.26087L17.5103 2.59209C17.9246 2.17695 17.9246 1.48046 17.5103 1.06532C17.3031 0.858283 17.0191 0.766968 16.7477 0.766968C16.4762 0.766968 16.1924 0.858283 15.9851 1.06532L9.32105 7.73408L2.65699 1.06532C2.44979 0.858283 2.16588 0.766968 1.89438 0.766968Z" fill="#E3E6E8"/>
</svg>
